<svg xmlns="http://www.w3.org/2000/svg" viewBox="0 0 600 600">
  <defs><linearGradient id="bg" x1="0" y1="0" x2="1" y2="1"><stop stop-color="#0b232b"/><stop offset="1" stop-color="#173c46"/></linearGradient><radialGradient id="glow"><stop stop-color="#efb34a" stop-opacity=".28"/><stop offset="1" stop-color="#efb34a" stop-opacity="0"/></radialGradient></defs>
  <rect width="600" height="600" rx="42" fill="url(#bg)"/>
  <circle cx="470" cy="105" r="170" fill="url(#glow)"/>
  <path d="M56 502h488" stroke="#e9dcae" stroke-opacity=".16" stroke-width="2"/>
  <g transform="translate(175 120) skewX(-12)"><rect width="250" height="280" rx="12" fill="#214a53" stroke="#efb34a" stroke-width="3"/><path d="M25 55h200M25 110h200M25 165h200M25 220h200M75 10v260M140 10v260M205 10v260" stroke="#8fbab1" stroke-opacity=".65" stroke-width="2"/></g><circle cx="465" cy="128" r="34" fill="#efb34a"/><g stroke="#efb34a" stroke-width="4" stroke-linecap="round"><path d="M465 70v-22M465 208v22M407 150h-22M523 150h22M424 109l-15-15M506 191l15 15M506 109l15-15M424 191l-15 15"/></g><circle cx="465" cy="150" r="27" fill="#efb34a"/>
  <circle cx="530" cy="530" r="20" fill="#efb34a"/><path d="M520 530h20M530 520v20" stroke="#0b232b" stroke-width="3" stroke-linecap="round"/>
</svg>